<svg xmlns="http://www.w3.org/2000/svg" viewBox="0 0 23 23"><path d="M1 1h7v7h-7zM10 1h4v3h-1v-2h-3zM15 1h7v7h-7zM2 2v5h5v-5zM16 2v5h5v-5zM3 3h3v3h-3zM9 3h1v2h1v2h-1v2h-1zM11 3h1v2h-1zM17 3h3v3h-3zM13 5h1v1h-1zM12 6h1v1h-1zM11 7h1v2h-1zM13 7h1v1h-1zM1 9h1v1h-1zM3 9h5v1h-3v1h3v1h-1v1h-1v-1h-2v1h1v1h-3v-1h1v-2h1v-1h-1zM10 9h1v1h-1zM12 9h1v1h2v-1h5v2h1v1h-1v1h-2v-3h-2v1h1v1h-1v1h-2v2h-1v-2h-1v1h-2v1h-1v-1h-2v-1h1v-1h2v1h1v-1h-1v-1h2v1h1v-1h-1zM9 10h1v1h-1zM21 10h1v1h-1zM14 11v1h1v-1zM16 13h1v2h-1zM21 13h1v1h-1zM18 14h1v1h-1zM1 15h7v7h-7zM10 15h1v1h-1zM12 15h1v1h-1zM14 15h1v1h-1zM17 15h1v1h1v-1h2v3h-1v-1h-2v1h-1v-1h-1v-1h1zM2 16v5h5v-5zM9 16h1v2h1v4h-2v-1h1v-1h-1zM11 16h1v1h-1zM3 17h3v3h-3zM12 17h1v1h1v-1h1v1h2v2h-1v1h-2v1h-1v-1h-1v-1h1v-1h-1zM18 18h1v1h-1zM14 19v1h1v-1zM19 19h1v2h-2v1h-1v-2h2zM20 21h1v1h-1z"/></svg>